<svg enable-background="new 0 0 2000 2000" height="316.227766" viewBox="0 0 2000 2000" width="316.227766" xmlns="http://www.w3.org/2000/svg" xmlns:xlink="http://www.w3.org/1999/xlink"><clipPath id="a"><path d="m5 .2h1990.8v1999.8h-1990.8z"/></clipPath><path clip-path="url(#a)" d="m21.7 1000.1c0-541.8 439.2-981 981-981s981 439.2 981 981-439.2 981-981 981-981-439.2-981-981" fill="#fff"/><path clip-path="url(#a)" d="m21.7 1000.1c0-541.8 439.2-981 981-981s981 439.2 981 981-439.2 981-981 981-981-439.2-981-981z" fill="none" stroke="#231f20" stroke-width="20.1772"/><path clip-path="url(#a)" d="m53.4 1000.1c0-524.3 425-949.3 949.3-949.3s949.3 425 949.3 949.3-425 949.3-949.3 949.3-949.3-425-949.3-949.3" fill="#ec3745"/><circle clip-path="url(#a)" cx="1002.7" cy="1000.1" fill="none" r="949.3" stroke="#231f20" stroke-miterlimit="3.864" stroke-width="8.9677"/><path clip-path="url(#a)" d="m294.3 1000.1c0-391.2 317.1-708.3 708.3-708.3s708.3 317.1 708.3 708.3-317.1 708.3-708.3 708.3c-391.1 0-708.3-317.1-708.3-708.3" fill="#0084c7"/><circle clip-path="url(#a)" cx="1002.7" cy="1000.1" fill="none" r="708.3" stroke="#231f20" stroke-miterlimit="3.864" stroke-width="8.9677"/><g fill="#fff"><path clip-path="url(#a)" d="m583 1437.7c-1.6 1.8-3.4 3.7-8.3-1.1-13.1-13.1 1.3-31.1 8.2-38 18.1-18.2 29.7-16.4 38.2-7.9 3.7 3.6 3 5.7-.1 8.8zm63.8-26.8-24.1-24c-19.8-18.5-39.9-14.8-53.9-.8-11.7 11.7-18 31.9 3.4 53.2l23.3 23.1 1.9-1.9c-2.7-3.3-5.9-6.8-1.2-11.4l37.4-37.6c2.8-2.8 6.5-3.5 11.3 1.3z"/><path clip-path="url(#a)" d="m566.7 1323 23.5 29.5-2.1 1.7c-4-4.2-7-7.2-12.2-3.1l-40.7 32.5c-5.6 4.4-2.6 8.5.3 12.6l-2.1 1.7-23.5-29.4 2.1-1.7c3.3 3.8 6.6 7.8 12.3 3.2l40.7-32.5c5.4-4.3 3-7.9-.4-12.8z"/><path clip-path="url(#a)" d="m493.4 1305.2c-5.3 5.7-12.2 17.9-5.3 28.5 3 4.7 9 7.9 14.8 4.1 4.9-3.2 5.8-6.2 4.7-16.2l-2-17.5c-.4-4.1.4-14.3 10.2-20.7 8-5.1 22.6-6.4 33.4 10.2 5.5 8.6 5.1 14.6 6.9 17.5 1.2 1.9 3.1 1.3 4.8.7l1.7 2.6-22.3 14.4-1.7-2.6c8-7.7 14.8-19.5 7.4-31-7-10.9-16.2-5.5-17.4-4.8-6.1 3.9-5.5 9.6-4.5 17.2l1 7.9c2.6 20.2-5.2 25.3-9.4 27.9-5.5 3.6-19.6 8.7-30.7-8.5-4.7-7.2-4.4-13.4-6.1-16-1.3-2.1-3-1.6-5-1l-1.8-2.7 19.6-12.7z"/><path clip-path="url(#a)" d="m484.7 1205.2c11.4 3.3 21.1 8 27 20.5 10.7 22.7.5 42.5-17.7 51.1-19.8 9.3-41.6 2.5-51.2-18-4.1-8.8-2.9-18.5-4.1-21-1.2-2.6-3.7-2.5-6.6-2.4l-1.2-2.6 22.8-10.8 1.1 2.4c-6.9 7.4-14.4 20.9-9.2 32 6.7 14.2 23.4 11 39.8 3.2 5.8-2.7 14.9-7.7 19.4-14.3 5.1-7.4 2.9-15.8 1.5-18.8-3.6-7.6-9.9-13.5-22.8-17.3z"/><path clip-path="url(#a)" d="m482.6 1154.9 12 35.7-2.5.9c-2.4-5.3-4.1-9.2-10.4-7.1l-49.4 16.6c-6.7 2.3-5.3 7.1-4.1 11.9l-2.6.9-12-35.7 2.5-.9c1.8 4.7 3.6 9.6 10.5 7.3l49.4-16.6c6.5-2.2 5.5-6.4 4-12.1z"/><path clip-path="url(#a)" d="m410.7 1136.5c-2.3.4-4-.7-4.8-4.2-1.9-8.6 1.2-13.3 13.2-15.9 13-2.9 17.1 1.2 19.7 13.9zm69.4 11.7-7.8-35.1-2.6.6c.7 7.5.9 9.5-7.6 11.4l-19.5 4.3c-3.2-13.8-4.5-19.2-9.7-25.1-6.6-7.4-14.3-6.9-18-6-17.8 3.9-15.1 23.4-13.2 31.8l7.5 33.8 2.6-.6c-.7-5.7-1.1-9 7.7-11l46.4-10.3c5.9-1.3 7.6-.1 8.8.9.7.6.8.8 2.8 5.8z"/><path clip-path="url(#a)" d="m460.1 1018.9 5.3 62-2.7.2c-1.3-5.9-1.9-9.1-8.4-8.6l-51.9 4.5c-7.1.6-6.9 5-6.8 9.9l-2.7.2-3.2-37.4 2.7-.2c1 7.5 1.4 10.8 10.8 10l50.6-4.3c5.1-.4 5.8-2.9 5.2-10.1-1.4-16.2-10.8-21.4-23.3-25.3l-.3-3.1z"/><path clip-path="url(#a)" d="m461.1 967.8-.9 37.7-2.7-.1c-.4-5.8-.7-10-7.4-10.2l-52.1-1.3c-7.1-.2-7.4 4.9-7.9 9.8l-2.7-.1.9-37.7 2.7.1c.1 5.1.1 10.2 7.4 10.4l52.1 1.3c6.9.2 7.3-4.1 7.9-10z"/><path clip-path="url(#a)" d="m458 960.3c.2-6.5-.2-9.6-7.2-10.6l-50.5-7.1c-8.2 4.9-8.8 6.6-8.9 8l-2.7-.4 3.2-22.5 50.7-30.6v-.2l-32.3-4.5c-6.4-.9-10.1-.1-11.9 8.4l-2.7-.4 3.2-22.9 2.7.4c-.1 7.8 2.2 8.8 7.4 9.5l62.8 8.8-.4 3-64.4 39.3v.2l42.6 6c7.7 1.1 10-.9 12-8.6l2.7.4-3.4 24.2z"/><path clip-path="url(#a)" d="m452.7 858.2-22.3-17 28.1-3.1zm36.9-45.3c-1.2 5-5.2 5.6-17.6 7.1l-61.1 7.1-.8 2.9 49.9 39.5c6.8 5.4 9.9 7.8 9.1 13.7l2.6.8 6.1-21-2.6-.8c-1.2 3.5-3 8.3-6.9 7.2-1.6-.5-5.4-3.4-12-8.4l6.8-23.2c3.7-.5 12.3-1.6 15.1-.7 3.4 1 3 2.9 1.6 9.4l2.6.8 9.8-33.5z"/><path clip-path="url(#a)" d="m669.4 492.2c-1.2-2.1-.8-4 2.3-6 7.4-4.8 12.9-3.5 19.5 6.8 7.2 11.2 4.9 16.5-6.2 23.3zm13.2 69.2 30.2-19.5-1.5-2.3c-6.8 3.2-8.6 4.1-13.3-3.2l-10.9-16.8c11.9-7.8 16.4-10.9 20.1-17.9 4.6-8.7 1.5-15.8-.6-19-9.9-15.3-27.2-6-34.4-1.3l-29.1 18.8 1.5 2.3c5.1-2.7 8.1-4.2 13 3.4l25.8 40c3.3 5.1 2.8 7.1 2.2 8.6-.3.9-.5 1.1-4.4 4.7z"/><path clip-path="url(#a)" d="m735.7 455.1c-.9-3.3-1.2-4.4 4.1-6.9 7.8-3.7 13.7-1.4 18.4 8.5 6 12.6 1.9 17.2-10.8 23.3zm69.1 35.8c-1.2.5-2.7 1.1-4.9 0l-32.7-18.5c4.5-4.1 13.1-11.9 7.4-23.9-7.7-16.3-28.7-7.4-35.5-4.2l-31.3 14.8 1.1 2.4c5.7-2.2 8.8-3.5 12.8 4.9l20.3 43c3.7 7.9 1.9 9.1-4.3 13l1.1 2.4 32.9-15.5-1.1-2.4c-6.8 2.2-9.1 2.9-12.8-4.9l-9-19.1 2.6-1.2 34.5 20.9 20-9.4z"/><path clip-path="url(#a)" d="m818.6 462.7 2-28 18 21.8zm58.1 6c-4.9 1.7-7.6-1.3-15.6-10.9l-39.5-47.1-2.9.9-5.6 63.4c-.7 8.7-1.1 12.6-6.4 15.1l.8 2.6 20.9-6.4-.8-2.6c-3.6.9-8.6 2.1-9.8-1.8-.5-1.6-.2-6.4.5-14.7l23.1-7.1c2.4 2.9 8.1 9.5 8.9 12.2 1 3.4-.8 4.1-7 6.5l.8 2.6 33.3-10.2z"/><path clip-path="url(#a)" d="m871.2 398.3 61.3-9.8 3.4 21.4-2.7.4c-4.9-14.7-12.8-16.2-27.2-13.9-5.8.9-7.7 1.7-7 6.2l3.9 24.7c10.2-1.5 15.2-5.1 14.7-18.6l2.8-.4 5.7 35.9-2.8.4c-3.4-13.1-9.3-15.4-19.8-13.7l4.1 25.7c.7 4.7 3 5.6 9.9 4.5 10.4-1.7 20.8-6.2 24.9-23.3l3-.5-.7 22.8-62.2 9.9-.4-2.7c6-1.6 9.2-2.4 8.2-9l-8.2-51.4c-1.1-7-5.6-6.5-10.6-6.1z"/><path clip-path="url(#a)" d="m999.4 406.5c-2.2-7.5-9.1-19.6-21.8-19.1-5.6.2-11.4 3.6-11.1 10.6.2 5.8 2.3 8.1 11.6 12.3l16.1 7.3c3.7 1.7 12.1 7.6 12.6 19.3.4 9.5-6 22.7-25.8 23.5-10.2.4-15.2-3.1-18.5-3-2.3.1-2.7 2-3.1 3.8l-3.1.1-1-26.6 3.1-.1c2.6 10.8 9.2 22.7 22.9 22.2 12.9-.5 13-11.1 13-12.5-.3-7.2-5.4-9.6-12.5-12.7l-7.3-3.2c-18.7-8.1-19.1-17.4-19.2-22.3-.2-6.6 2.5-21.3 23-22.1 8.6-.3 13.8 3 16.9 2.9 2.5-.1 3-1.7 3.4-3.8l3.2-.1.9 23.3z"/><path clip-path="url(#a)" d="m1053.7 460-37.6-2.2.2-2.7c5.8-.2 10.1-.4 10.4-7l3-52c.4-7.1-4.6-7.6-9.6-8.2l.2-2.7 37.6 2.2-.2 2.7c-5.1-.1-10.2-.3-10.7 7l-3 52c-.4 6.9 3.9 7.5 9.8 8.2z"/><path clip-path="url(#a)" d="m1094.8 400.8c.3-2.3.6-5 7.4-3.9 18.2 3.1 16.8 26.1 15.2 35.8-4.3 25.4-14.8 30.5-26.7 28.5-5.1-.9-5.7-2.9-5-7.2zm-36.8 58.6 33.5 5.7c26.9 3.7 41.2-10.9 44.5-30.4 2.8-16.3-3.7-36.4-33.4-41.5l-32.4-5.5-.5 2.7c4.1 1.1 8.7 2.1 7.6 8.6l-8.9 52.3c-.7 3.9-3.3 6.6-10 5.5z"/><path clip-path="url(#a)" d="m1171.7 484.4-36.2-10.5.8-2.6c5.7 1.1 9.9 1.8 11.7-4.6l14.5-50c2-6.8-2.8-8.4-7.5-10.1l.7-2.6 36.2 10.5-.8 2.6c-4.9-1.2-9.9-2.5-11.9 4.5l-14.5 50c-1.9 6.6 2.1 8.1 7.7 10.2z"/><path clip-path="url(#a)" d="m1271.1 448.5c-5.8-1.5-8.5-1.3-11.3 5.2l-13.2 31.7c-2.4 5.9-7.5 14.1-13.5 16.9-7.2 3.3-16.6 1.6-22.6-.9-4.4-1.8-13.5-6.3-17.6-14.6-2.7-5.6-3.8-10.1.6-20.8l13.8-33.2c3.5-8.3 1-9.6-4.3-12.5l1-2.5 33.6 14-1 2.5c-6.7-2.4-9.8-3.6-13.4 5.1l-13.8 33.2c-2.3 5.7-8.1 19.4 6.3 25.3 17.5 7.3 24-7.9 26.7-14.2l12.6-30.3c2.5-6.1 2.7-9.9-5.7-13.9l1-2.5 21.9 9.1z"/><path clip-path="url(#a)" d="m1330.6 565.6-30.3-18.9 1.4-2.3c5.8 2.9 8.6 4.3 12.4-1.8l28.7-46-.2-.1-57.3 40.9-2.5-1.5 10.8-68-.2-.1-26.5 42.4c-4 6.4-3.7 9.6 3.6 14.8l-1.4 2.3-21.4-13.3 1.4-2.3c7.5 3.8 9.6 3.2 12.9-2.1l27.1-43.3c3-4.7 2.1-7-4.1-11.6l1.4-2.3 23.1 14.4-8.7 54.5 45.2-31.7 23 14.4-1.4 2.3c-5.3-2.8-8.4-4.5-13.3 3.4l-25.2 40.3c-4.6 7.3-2.7 8.8 2.8 13.4z"/><path clip-path="url(#a)" d="m1553.2 915.2c-10.4-5.8-18.8-12.5-21.8-26-5.4-24.5 9-41.5 28.7-45.8 21.3-4.7 41 6.9 45.9 29 2.1 9.5-1.3 18.7-.7 21.4.6 2.8 3 3.3 5.9 3.8l.6 2.8-24.6 5.4-.6-2.6c8.3-5.7 18.7-17.2 16.1-29.2-3.3-15.3-20.3-15.9-38.1-12.1-6.3 1.4-16.3 4.2-22.1 9.6-6.6 6.1-6.4 14.7-5.7 18 1.8 8.2 6.7 15.4 18.3 22z"/><path clip-path="url(#a)" d="m1544.3 969.8-3.4-37.5 2.7-.2c1 5.7 1.9 9.9 8.5 9.3l51.9-4.7c7.1-.6 6.8-5.7 6.7-10.7l2.7-.2 3.4 37.5-2.7.2c-.7-5-1.2-10.2-8.5-9.5l-51.9 4.7c-6.9.6-6.8 4.9-6.7 10.9z"/><path clip-path="url(#a)" d="m1613.2 1058.8c-.5-5.9-2.5-7.4-8.5-10l-62.3-26.8.1-2.9 65.4-25.2c6.6-2.6 6.9-4.2 7.9-8.8l2.7.1-1.3 36.1-2.7-.1c-.2-6.8-.1-9.3-4.2-9.4-2-.1-6.6 1.9-9.4 2.9l-34.5 12.9 34.9 14.9c2.4 1.1 5.2 2.3 7.3 2.4 4.2.1 4.7-3 5.3-9.1l2.7.1-.8 22.9z"/><path clip-path="url(#a)" d="m1534.8 1106 6-37.2 2.7.4c-.4 5.8-.6 10 5.9 11.1l51.4 8.3c7 1.1 8-3.8 9.1-8.7l2.7.4-6 37.2-2.7-.4c.6-5 1.3-10.1-5.9-11.3l-51.4-8.3c-6.8-1.1-7.8 3.1-9.2 8.9z"/><path clip-path="url(#a)" d="m1518.2 1169.6 10.7-36.9 2.6.8c-1.6 7.7-2.1 10.3 6.6 12.8l54.5 15.8c1.7-7.4 4.3-18.2-11.7-25l.9-3 20.7 6.3-17.9 62-20.8-5.8.9-3c17.1 2.7 20.7-7.8 23.2-14.8l-54.5-15.8c-8.8-2.5-9.7-.1-12.4 7.4z"/><path clip-path="url(#a)" d="m1529.2 1213.2 19.8 19.9-28.3-.7zm-42.6 39.9c1.9-4.8 5.9-4.9 18.4-4.7l61.5 1 1.2-2.8-44.2-45.8c-6.1-6.2-8.8-9.1-7.2-14.7l-2.5-1.1-8.9 20 2.4 1.1c1.7-3.3 4.1-7.8 7.8-6.2 1.6.7 4.9 4.1 10.8 10l-9.8 22.1c-3.8 0-12.4-.1-15.1-1.3-3.2-1.5-2.6-3.3-.3-9.6l-2.5-1.1-14.2 31.9z"/><path clip-path="url(#a)" d="m1454.5 1300.5 20.1-32.7 2.3 1.4c-3.6 7-4.8 9.3 3 14.1l48.3 29.7c3.6-6.6 8.9-16.4-4.6-27.2l1.6-2.7 18.2 11.6-33.9 55-18.5-11.2 1.6-2.7c15.8 7.2 22.1-2 26.3-8.1l-48.3-29.7c-7.8-4.8-9.3-2.7-14 3.8z"/><path clip-path="url(#a)" d="m1415.5 1352.1 23.4-29.5 2.1 1.7c-3.2 4.9-5.5 8.4-.3 12.6l40.8 32.4c5.6 4.4 8.9.6 12.2-3.1l2.1 1.7-23.4 29.5-2.1-1.7c3-4.1 6.1-8.2.4-12.8l-40.8-32.4c-5.4-4.3-8.3-1.1-12.3 3.2z"/><path clip-path="url(#a)" d="m1410.6 1431.4c6.7 3.9 20.1 8.1 29-1 3.9-4 5.8-10.4.8-15.4-4.1-4.1-7.3-4.3-16.8-1.1l-16.7 5.7c-3.9 1.3-14.1 2.7-22.4-5.5-6.7-6.7-11.1-20.7 2.8-34.8 7.2-7.3 13.2-8.1 15.5-10.5 1.6-1.6.6-3.4-.3-4.9l2.2-2.2 18.9 18.7-2.2 2.2c-9.2-6.1-22.3-10.2-31.9-.5-9.1 9.2-1.9 17-.9 18 5.1 5.1 10.5 3.3 17.8.7l7.5-2.7c19.2-6.9 25.8-.3 29.3 3.1 4.7 4.6 12.7 17.3-1.7 31.8-6.1 6.1-12.2 7.2-14.3 9.4-1.7 1.7-1 3.3.1 5.1l-2.3 2.3-16.6-16.4z"/></g><path clip-path="url(#a)" d="m588.8 893.2c2.2 108.9 15.9 227.6 53.7 341 116.7 349.9 370.1 428.5 370.1 428.5s251.3-79.9 367.9-429.8c37.6-112.9 51.4-231.1 53.7-339.6h-845.4z" fill="#f4812a"/><path clip-path="url(#a)" d="m588.8 893.2c2.2 108.9 15.9 227.6 53.7 341 116.7 349.9 370.1 428.5 370.1 428.5s251.3-79.9 367.9-429.8c37.6-112.9 51.4-231.1 53.7-339.6h-845.4z" fill="none" stroke="#231f20" stroke-miterlimit="3.864" stroke-width="8.9677"/><path clip-path="url(#a)" d="m1434.2 893.2c4-189-26.8-342.3-26.8-342.3s-53.8 60.6-206.4 62.8c-121.1 1.4-190.7-70.4-190.7-70.4s-67.2 73-188.3 71.7c-152.5-2.3-206.4-62.8-206.4-62.8s-30.7 152.7-26.9 341z" fill="#fff"/><path clip-path="url(#a)" d="m1434.2 893.2c4-189-26.8-342.3-26.8-342.3s-53.8 60.6-206.4 62.8c-121.1 1.4-190.7-70.4-190.7-70.4s-67.2 73-188.3 71.7c-152.5-2.3-206.4-62.8-206.4-62.8s-30.7 152.7-26.9 341z" fill="none" stroke="#231f20" stroke-miterlimit="3.864" stroke-width="8.9677"/><path clip-path="url(#a)" d="m989.3 835.2c10.5-7.3 13.9-20.5 26.7-21 15-.6 19.4 14.5 31.7 23.2m161.8-1.1-161.8 1.1s-32.3 19.3-58.3-2.2l-177.2 4.5m3.7 2.5 2.9-20.5h-18l5.8-48.5 16.6-.9-4.5 49.3 8.1-89.7-18-.4 5.4-44.4 17.5.4-4.5 44 4.9-48.9 29.1-25.7 11.2-10.2s13.5 4.5 26.9 4.5c13.5 0 40.4-17.9 58.3-17.9s53.8 13.5 53.8 13.5 26.9-17.9 40.4-17.9 44.9 13.5 62.8 13.5 35.9 4.5 35.9 4.5l44.9 26.9 5.8 50.3-4.5-42.6h15.7l4.5 41.7-14.8 2.3 6.7 96.4-2.6-44.5 16.1-.3 4.5 40.4-17.9 4.5v18m-45.9-40.2 44.9 35.9m-344.2-27.5-43.2 25.8m192.6-19s27.8-30.5 57-29.2c13.9.4 49.4 17.9 58.3 17.9h35.9l-9.9-154.4m-138.4 164.9s-22.2-23.9-49.1-23.9-53.8 18-67.3 18h-35.9l9-161.5m139.1-.1 4.7 165.8" fill="none" stroke="#231f20" stroke-miterlimit="3.864" stroke-width="8.9677"/><path clip-path="url(#a)" d="m1100.1 1385c-21.5-28.7 5.8-55.2 24.7-71.8 9 72.7-14.8 44.9-2.3 60.6 12.1-39.5 14.4-53.8 35.9-80.8 22.4 41.3 14.4 73.1-29.2 83.9 4 7.6 30.1 4.5 38.1 4.5-42.6-2.2-4.9-17.9 2.2-36.8 6.7-21.1 0-42.6 11.2-71.8 5.4-14.4 20.6-17 22.4-33.6 13.5 29.2 8.5 68.6 6.7 66-3.1 3.6-10.3 6.3-9 11.2 14.4-7.6 34.6-7.6 22.4-30.1-13.5 2.7-13.9 13.9-6.7 24.7 29.6-8.1-.9-64.6-2.2-76.3-4-21.5 16.2-28.7 13.5-49.4 1.8 10.8 52.5 71.3 11.2 83 .9-16.1 16.2-26 18-40.4 5.8-39-18-30.5-24.7-103.2 26.5 9.9 38.1 33.7 38.1 67.3v-26.9c17.5-5.4-11.7-22-20.2-35.9-15.3-22-15.7-42.6-15.7-76.3 4.5 15.7 26 15.7 33.7 26.9 7.2 13.9 3.1 46.7 19.3 52.5-12.6-15.7-13.5-23.3-18-50.2 4.5-9-14.3-25.6-21.5-33.7-13-13-30.1-35.4-31.4-60.6 19.3 15.7 28.3 6.7 53.8 42.6-9-9-12.1-15.3-20.2-26.9 1.3 1.3 3.1 3.1 4.5 4.5-12.1-31.9-36.8-1.4-35.9-87.5 5.8 15.7 22.4 16.6 29.2 29.2 12.1 22.4 1.3 55.6 17.9 76.3-13.5-24.7-4-37.2 4.5-62.8 26 50.3 20.2 49.4 4.5 114.4 11.7-26.5 16.2-38.1 35.9-53.9 0 29.2 7.6 48.9 0 74-4.9 18.4-22.4 31.4-29.2 51.6 12.6-26 28.7-38.6 35.9-49.3 2.3 17.1 7.2 33.2 0 49.3-8.5 21.1-38.1 25.6-38.1 53.9 17.9-13 2.2-12.6 40.4-35.9-2.3 27.8-5.4 36.8-15.7 54.7-18 20.2-54.3 14.4-56.1 44 0-29.6 30.1-24.2 58.3-31.4-11.2 3.6-41.3 73.6-87.5 77.2-24.2 1.8-29.2 21.1-47.1 33.7 12.6-23.3 46.2-32.3 78.5-25.6-5.4 24.7-52.9 64.2-49.4 44.9 5.8-28.3-48.5-1.8-53.8 11.2 16.1-18.4 27.8-23.8 55.2-23.8-13.5 33.6-15.3 38.1-40.4 49.3.5-2.7 14.4-32.3 6.7-15.7-10.3 38.1-43.5 26-64.2 26z" fill="#5dba56"/><path clip-path="url(#a)" d="m1100.1 1385c-21.5-28.7 5.8-55.2 24.7-71.8 9 72.7-14.8 44.9-2.3 60.6 12.1-39.5 14.4-53.8 35.9-80.8 22.4 41.3 14.4 73.1-29.2 83.9 4 7.6 30.1 4.5 38.1 4.5-42.6-2.2-4.9-17.9 2.2-36.8 6.7-21.1 0-42.6 11.2-71.8 5.4-14.4 20.6-17 22.4-33.6 13.5 29.2 8.5 68.6 6.7 66-3.1 3.6-10.3 6.3-9 11.2 14.4-7.6 34.6-7.6 22.4-30.1-13.5 2.7-13.9 13.9-6.7 24.7 29.6-8.1-.9-64.6-2.2-76.3-4-21.5 16.2-28.7 13.5-49.4 1.8 10.8 52.5 71.3 11.2 83 .9-16.1 16.2-26 18-40.4 5.8-39-18-30.5-24.7-103.2 26.5 9.9 38.1 33.7 38.1 67.3v-26.9c17.5-5.4-11.7-22-20.2-35.9-15.3-22-15.7-42.6-15.7-76.3 4.5 15.7 26 15.7 33.7 26.9 7.2 13.9 3.1 46.7 19.3 52.5-12.6-15.7-13.5-23.3-18-50.2 4.5-9-14.3-25.6-21.5-33.7-13-13-30.1-35.4-31.4-60.6 19.3 15.7 28.3 6.7 53.8 42.6-9-9-12.1-15.3-20.2-26.9 1.3 1.3 3.1 3.1 4.5 4.5-12.1-31.9-36.8-1.4-35.9-87.5 5.8 15.7 22.4 16.6 29.2 29.2 12.1 22.4 1.3 55.6 17.9 76.3-13.5-24.7-4-37.2 4.5-62.8 26 50.3 20.2 49.4 4.5 114.4 11.7-26.5 16.2-38.1 35.9-53.9 0 29.2 7.6 48.9 0 74-4.9 18.4-22.4 31.4-29.2 51.6 12.6-26 28.7-38.6 35.9-49.3 2.3 17.1 7.2 33.2 0 49.3-8.5 21.1-38.1 25.6-38.1 53.9 17.9-13 2.2-12.6 40.4-35.9-2.3 27.8-5.4 36.8-15.7 54.7-18 20.2-54.3 14.4-56.1 44 0-29.6 30.1-24.2 58.3-31.4-11.2 3.6-41.3 73.6-87.5 77.2-24.2 1.8-29.2 21.1-47.1 33.7 12.6-23.3 46.2-32.3 78.5-25.6-5.4 24.7-52.9 64.2-49.4 44.9 5.8-28.3-48.5-1.8-53.8 11.2 16.1-18.4 27.8-23.8 55.2-23.8-13.5 33.6-15.3 38.1-40.4 49.3.5-2.7 14.4-32.3 6.7-15.7-10.3 38.1-43.5 26-64.2 26z" fill="none" stroke="#231f20" stroke-miterlimit="3.864" stroke-width="6.7257"/><path clip-path="url(#a)" d="m914.6 1385c21.5-28.7-5.8-55.2-24.7-71.8-9 72.7 14.8 44.9 2.2 60.6-12.1-39.5-14.4-53.8-35.9-80.8-22.4 41.3-14.3 73.1 29.2 83.9-4 7.6-30.1 4.5-38.1 4.5 42.6-2.2 4.9-17.9-2.2-36.8-6.7-21.1 0-42.6-11.2-71.8-5.4-14.4-20.6-17-22.4-33.6-13.5 29.2-8.5 68.6-6.7 66 3.1 3.6 10.3 6.3 9 11.2-14.4-7.6-34.6-7.6-22.4-30.1 13.5 2.7 13.9 13.9 6.7 24.7-29.6-8.1.9-64.6 2.2-76.3 4-21.5-16.1-28.7-13.5-49.4-1.8 10.8-52.5 71.3-11.2 83-.9-16.1-16.2-26-17.9-40.4-5.8-39 17.9-30.5 24.7-103.2-26.5 9.9-38.1 33.7-38.1 67.3v-26.9c-17.5-5.4 11.7-22 20.2-35.9 15.3-22 15.7-42.6 15.7-76.3-4.5 15.7-26 15.7-33.6 26.9-7.2 13.9-3.1 46.7-19.3 52.5 12.6-15.7 13.5-23.3 17.9-50.2-4.5-9 14.4-25.6 21.5-33.7 13-13 30.1-35.4 31.4-60.6-19.3 15.7-28.3 6.7-53.9 42.6 9-9 12.1-15.3 20.2-26.9-1.3 1.3-3.1 3.1-4.5 4.5 12.1-31.9 36.8-1.4 35.9-87.5-5.8 15.7-22.4 16.6-29.2 29.2-12.1 22.4-1.3 55.6-17.9 76.3 13.5-24.7 4-37.2-4.5-62.8-26 50.3-20.2 49.4-4.5 114.4-11.7-26.5-16.2-38.1-35.9-53.9 0 29.2-7.6 48.9 0 74 4.9 18.4 22.4 31.4 29.2 51.6-12.6-26-28.7-38.6-35.9-49.3-2.3 17.1-7.2 33.2 0 49.3 8.5 21.1 38.1 25.6 38.1 53.9-17.9-13-2.2-12.6-40.4-35.9 2.3 27.8 5.4 36.8 15.7 54.7 17.9 20.2 54.3 14.4 56.1 44 0-29.6-30.1-24.2-58.3-31.4 11.2 3.6 41.3 73.6 87.5 77.2 24.2 1.8 29.2 21.1 47.1 33.7-12.6-23.3-46.2-32.3-78.5-25.6 5.4 24.7 52.9 64.2 49.4 44.9-5.8-28.3 48.5-1.8 53.8 11.2-16.2-18.4-27.8-23.8-55.2-23.8 13.5 33.6 15.2 38.1 40.4 49.3-.4-2.7-14.3-32.3-6.7-15.7 10.3 38.1 43.5 26 64.2 26z" fill="#5dba56"/><path clip-path="url(#a)" d="m914.6 1385c21.5-28.7-5.8-55.2-24.7-71.8-9 72.7 14.8 44.9 2.2 60.6-12.1-39.5-14.4-53.8-35.9-80.8-22.4 41.3-14.3 73.1 29.2 83.9-4 7.6-30.1 4.5-38.1 4.5 42.6-2.2 4.9-17.9-2.2-36.8-6.7-21.1 0-42.6-11.2-71.8-5.4-14.4-20.6-17-22.4-33.6-13.5 29.2-8.5 68.6-6.7 66 3.1 3.6 10.3 6.3 9 11.2-14.4-7.6-34.6-7.6-22.4-30.1 13.5 2.7 13.9 13.9 6.7 24.7-29.6-8.1.9-64.6 2.2-76.3 4-21.5-16.1-28.7-13.5-49.4-1.8 10.8-52.5 71.3-11.2 83-.9-16.1-16.2-26-17.9-40.4-5.8-39 17.9-30.5 24.7-103.2-26.5 9.9-38.1 33.7-38.1 67.3v-26.9c-17.5-5.4 11.7-22 20.2-35.9 15.3-22 15.7-42.6 15.7-76.3-4.5 15.7-26 15.7-33.6 26.9-7.2 13.9-3.1 46.7-19.3 52.5 12.6-15.7 13.5-23.3 17.9-50.2-4.5-9 14.4-25.6 21.5-33.7 13-13 30.1-35.4 31.4-60.6-19.3 15.7-28.3 6.7-53.9 42.6 9-9 12.1-15.3 20.2-26.9-1.3 1.3-3.1 3.1-4.5 4.5 12.1-31.9 36.8-1.4 35.9-87.5-5.8 15.7-22.4 16.6-29.2 29.2-12.1 22.4-1.3 55.6-17.9 76.3 13.5-24.7 4-37.2-4.5-62.8-26 50.3-20.2 49.4-4.5 114.4-11.7-26.5-16.2-38.1-35.9-53.9 0 29.2-7.6 48.9 0 74 4.9 18.4 22.4 31.4 29.2 51.6-12.6-26-28.7-38.6-35.9-49.3-2.3 17.1-7.2 33.2 0 49.3 8.5 21.1 38.1 25.6 38.1 53.9-17.9-13-2.2-12.6-40.4-35.9 2.3 27.8 5.4 36.8 15.7 54.7 17.9 20.2 54.3 14.4 56.1 44 0-29.6-30.1-24.2-58.3-31.4 11.2 3.6 41.3 73.6 87.5 77.2 24.2 1.8 29.2 21.1 47.1 33.7-12.6-23.3-46.2-32.3-78.5-25.6 5.4 24.7 52.9 64.2 49.4 44.9-5.8-28.3 48.5-1.8 53.8 11.2-16.2-18.4-27.8-23.8-55.2-23.8 13.5 33.6 15.2 38.1 40.4 49.3-.4-2.7-14.3-32.3-6.7-15.7 10.3 38.1 43.5 26 64.2 26z" fill="none" stroke="#231f20" stroke-miterlimit="3.864" stroke-width="6.7257"/><path clip-path="url(#a)" d="m981.3 1373.7c-6.7 15.3-.9 63.7 0 67.3 3.6 5.4 39 10.8 48.5 2.2 11.2-10.3 9.9-65.1 7.6-69.5-2.3-6.7-46.3-22.9-56.1 0" fill="#ec3745"/><path clip-path="url(#a)" d="m981.3 1373.7c-6.7 15.3-.9 63.7 0 67.3 3.6 5.4 39 10.8 48.5 2.2 11.2-10.3 9.9-65.1 7.6-69.5-2.3-6.7-46.3-22.9-56.1 0z" fill="none" stroke="#231f20" stroke-miterlimit="3.864" stroke-width="6.7257"/><path clip-path="url(#a)" d="m1032.8 1441.9c16.6 40.8 91.5 85.7 142.7 51.6-23.3 0-38.1-12.1-49.3-21.1 26.5 0 38.6-8.5 54.7-29.2-15.7 7.6-70-7.6-83.9-21.5z" fill="#ec3745"/><path clip-path="url(#a)" d="m1032.8 1441.9c16.6 40.8 91.5 85.7 142.7 51.6-23.3 0-38.1-12.1-49.3-21.1 26.5 0 38.6-8.5 54.7-29.2-15.7 7.6-70-7.6-83.9-21.5z" fill="none" stroke="#231f20" stroke-miterlimit="3.864" stroke-width="6.7257"/><path clip-path="url(#a)" d="m1037.3 1373.7c9.9-17 17.5-37.2 38.1-35 22.4 6.3 16.6 26 26 44.9 20.2 40.4-31 61.9-69.5 57.4 6.9-9.7 5.4-67.3 5.4-67.3" fill="#ec3745"/><path clip-path="url(#a)" d="m1037.3 1373.7c9.9-17 17.5-37.2 38.1-35 22.4 6.3 16.6 26 26 44.9 20.2 40.4-31 61.9-69.5 57.4 6.9-9.7 5.4-67.3 5.4-67.3z" fill="none" stroke="#231f20" stroke-miterlimit="3.864" stroke-width="6.7257"/><path clip-path="url(#a)" d="m981.9 1441.9c-16.6 40.8-91.5 85.7-142.7 51.6 23.3 0 38.1-12.1 49.3-21.1-26.5 0-38.6-8.5-54.7-29.2 15.7 7.6 70-7.6 83.9-21.5z" fill="#ec3745"/><path clip-path="url(#a)" d="m981.9 1441.9c-16.6 40.8-91.5 85.7-142.7 51.6 23.3 0 38.1-12.1 49.3-21.1-26.5 0-38.6-8.5-54.7-29.2 15.7 7.6 70-7.6 83.9-21.5z" fill="none" stroke="#231f20" stroke-miterlimit="3.864" stroke-width="6.7257"/><path clip-path="url(#a)" d="m977.4 1373.7c-9.9-17-17.5-37.2-38.1-35-22.4 6.3-16.6 26-26 44.9-20.2 40.4 31 61.9 69.5 57.4-6.9-9.7-5.4-67.3-5.4-67.3" fill="#ec3745"/><path clip-path="url(#a)" d="m951 1442.2-40.4 35.9c-22.4-35 16.2-26.9 23.3-41.7m125.9 4.6 40.4 35.9c22.4-35-16.2-26.9-23.3-41.7m-99.5-61.5c-9.9-17-17.5-37.2-38.1-35-22.4 6.3-16.6 26-26 44.9-20.2 40.4 31 61.9 69.5 57.4-6.9-9.7-5.4-67.3-5.4-67.3z" fill="none" stroke="#231f20" stroke-miterlimit="3.864" stroke-width="6.7257"/><path clip-path="url(#a)" d="m248.3 928.9-3.3 71.1-5-.2c-.5-14.6-.7-19.4-17.4-20.2l-104.9-4.8c.2 14 .2 34.5 31.9 40l-.3 5.8-40-2.4 5.5-119.4 40 1.4-.3 5.8c-32 2.5-34 23-35.4 36.7l104.9 4.8c16.9.8 17.5-4 19.2-18.7z" fill="#fff"/><path clip-path="url(#a)" d="m279 765.8-14.5 66.2-4.9-1.1c1.1-10.6 1.9-17.9-10-20.5l-44.8-9.8-10.3 46.9 44.8 9.8c11.9 2.6 14.2-4.4 17.7-14.5l4.9 1.1-14.3 65.6-4.9-1.1c.9-10.6 1.3-17-10.2-19.6l-94.2-20.6c-12.7-2.8-14.9 5.5-17.4 13.5l-4.9-1.1 14.3-65.6 4.9 1.1c-1.3 8.7-2.8 17.7 10 20.5l40.3 8.8 10.3-46.9-40.3-8.8c-12.9-2.8-15.2 6.1-17.6 14.5l-4.9-1.1 14.5-66.2 4.9 1.1c-1.2 8.5-2.6 17.4 10.1 20.2l94.2 20.6c11.7 2.5 13.9-4.1 17.6-14.1z" fill="#fff"/><path clip-path="url(#a)" d="m152.4 723.9 43.2-106.5 37.1 15-1.9 4.6c-27.9-6.4-37.9 4.9-48 29.8-4.1 10.2-4.7 13.8 3.2 17l42.8 17.4c7.4-17.6 6.4-29-15.4-41.1l1.9-4.8 62.4 25.3-1.9 4.8c-24-7.1-33.3 0-40.8 18.3l44.7 18.1c8.1 3.3 11.8.7 16.6-11.3 7.3-18.1 10.2-38.9-13-61.8l2.1-5.2 35.4 23-43.8 108-4.6-1.9c3.2-11 4.9-16.9-6.5-21.6l-89.4-36.2c-12.2-5-15.7 2.7-19.7 10.9z" fill="#fff"/><path clip-path="url(#a)" d="m307.8 445.3c-4.9 10-5.6 15 5.2 22.4l52.5 35.8c9.7 6.6 22.8 18.9 25.5 30.9 3.3 14.3-3.4 30.7-10.1 40.6-4.9 7.2-16.5 22.1-33.2 26.4-11.1 2.8-19.8 3.2-37.5-8.9l-55-37.5c-13.8-9.4-17.1-5.4-24.3 3.2l-4.1-2.8 37.9-55.6 4.1 2.8c-6.9 11.2-10.2 16.4 4.3 26.3l55 37.5c9.4 6.4 32.1 21.9 48.3-1.8 19.7-29-5.2-46.5-15.8-53.7l-50.2-34.2c-10-6.8-17-8.7-27.3 5l-4.1-2.8 24.7-36.2z" fill="#fff"/><path clip-path="url(#a)" d="m406.1 521.3c7.3-9.6 10.2-14.6.7-23.7l-68-65.5c-17.6-1.5-20.3.4-22.1 2.3l-3.6-3.5 29.2-30.3 109.2 9.2.3-.3-43.5-41.9c-8.6-8.3-15-11.1-27.1-.3l-3.6-3.5 29.7-30.9 3.6 3.5c-8.7 11.6-6.2 15.6.7 22.2l84.6 81.4-3.9 4-139.3-11-.3.3 57.4 55.3c10.3 10 16 9.6 27.3 0l3.6 3.5-31.4 32.6z" fill="#fff"/><path clip-path="url(#a)" d="m555.4 388.5-54.3 43.8-3.1-3.9c7.7-7.5 13.3-13 5.6-22.6l-60.6-75.2c-8.3-10.2-15.8-4.7-23.3.6l-3.1-3.9 54.3-43.8 3.1 3.9c-7 6.2-14.4 12.3-5.9 22.9l60.5 75.1c8 9.9 14.6 5.4 23.6-.9z" fill="#fff"/><path clip-path="url(#a)" d="m596.6 208.9c-8.6 6.9-8.8 11.5-6.7 23.3l22.6 123.4-4.6 2.8-106-75c-10.7-7.5-13.5-6.4-21.6-3.1l-2.6-4.2 57-35.1 2.6 4.2c-10.3 7.3-14.2 9.7-10.2 16.1 2 3.2 9.8 8.3 14.1 11.5l55.2 40-12.8-69.1c-.9-4.8-1.7-10.4-3.8-13.8-4.1-6.6-9.4-4.3-19.4 1.2l-2.6-4.2 36.2-22.2z" fill="#fff"/><path clip-path="url(#a)" d="m606.3 198.8 106.4-43.6 15.2 37.1-4.6 1.9c-15-24.4-30-23.7-54.8-13.5-10.1 4.2-13.2 6.3-9.9 14.2l17.5 42.8c17.8-7.1 25.2-15.7 18.6-39.7l4.8-2 25.5 62.3-4.8 2c-11.7-22.1-23.3-23.8-41.6-16.3l18.3 44.6c3.3 8.1 7.7 8.9 19.7 4 18.1-7.4 34.9-19.9 35.1-52.5l5.2-2.1 8.3 41.4-107.9 44.2-1.9-4.6c10.1-5.4 15.5-8.3 10.9-19.7l-36.6-89.2c-5-12.2-12.9-9.4-21.6-6.4z" fill="#fff"/><path clip-path="url(#a)" d="m789.3 149.7c-.4-6.3-.5-8.5 10.2-10.9 15.5-3.6 25.4 3 29.9 22.6 5.8 25.2-3.3 31.8-28.7 37.9zm110.9 92.1c-2.3.5-5.3 1-8.8-1.9l-51.7-46.4c9.7-5.7 28.3-16.3 22.9-40.2-7.5-32.6-49-24.7-62.6-21.6l-62.5 14.4 1.1 4.9c11.3-1.8 17.4-2.8 21.2 13.9l19.7 85.8c3.6 15.7-.1 17.2-13 21.8l1.1 4.9 65.6-15.1-1.1-4.9c-13.2 1.2-17.6 1.6-21.2-13.9l-8.7-38.1 5.2-1.2 54.2 51.5 39.8-9.1z" fill="#fff"/><path clip-path="url(#a)" d="m971.1 148.4c-4.7-13.6-18.4-35.5-41.8-33.7-10.3.8-20.8 7.6-19.8 20.5.8 10.7 5 14.8 22.3 21.8l30.3 12.2c7 2.9 23 13.2 24.7 34.8 1.4 17.5-9.5 42.5-46 45.4-18.9 1.5-28.3-4.6-34.5-4.1-4.2.3-4.9 4-5.4 7.2l-5.8.4-3.8-49.1 5.8-.4c5.5 19.8 18.8 41.3 44 39.3 23.8-1.9 23.3-21.6 23.1-24.2-1-13.3-10.8-17.3-24.1-22.5l-13.8-5.3c-35.2-13.6-36.6-30.7-37.3-39.9-.9-12.1 3.1-39.6 40.8-42.6 15.9-1.2 25.7 4.6 31.5 4.1 4.6-.3 5.3-3.4 6-7.3l6-.5 3.4 43.1z" fill="#fff"/><path clip-path="url(#a)" d="m1059.4 244.5-69.7-2 .1-5c10.8-.7 18.6-1.3 18.9-13.6l2.7-96.4c.4-13.1-9-13.8-18.1-14.7l.1-5 69.7 2-.1 5c-9.4.1-18.9.1-19.3 13.6l-2.7 96.4c-.4 12.7 7.6 13.6 18.5 14.7z" fill="#fff"/><path clip-path="url(#a)" d="m1150.6 256.8-70.4-10.5.7-4.9c14.6 1 19.4 1.3 21.8-15.3l15.5-103.9c-13.9-1.3-34.4-3.3-43 27.6l-5.7-.9 6.5-39.5 118.2 17.6-5.5 39.7-5.7-.9c.8-32.1-19.4-36.1-32.9-38.9l-15.5 103.9c-2.5 16.8 2.2 17.9 16.6 21z" fill="#fff"/><path clip-path="url(#a)" d="m1338.4 176.5c-3.8-.6-9.5-1.6-15.3 3.3l-55.2 47.3-11.2 34.9c-5.1 15.7-1 17.5 11.8 23.1l-1.5 4.7-65.8-21.2 1.5-4.7c13.5 2.9 18.2 4 23.3-11.8l9-27.9-14.5-74.1c-.4-2-2.3-11.6-11.8-15.3l1.5-4.7 63.6 20.4-1.5 4.7c-13.1-4.2-15.7-3.8-17.4 1.5-.9 2.8.6 8.6 1.1 12.1l8.6 51.3 32.3-28.3c2-1.7 11.4-10.1 13.1-15.3 2.4-7.4-4.5-10-13.3-13.5l1.5-4.7 41.7 13.4z" fill="#fff"/><path clip-path="url(#a)" d="m1457.6 237.3c23.9 14.3 12.3 48.2-2.6 73.2-8.9 14.9-33.9 54.5-63.2 37s-6.3-58.3 2.6-73.2c14.9-24.9 39.2-51.3 63.2-37m3.4-5.6c-33-19.7-74.6-12.7-96.8 24.5-21.5 35.9-10.8 76 24.3 96.9s75.4 11.4 96.8-24.5c22.2-37.3 8.7-77.2-24.3-96.9" fill="#fff"/><path clip-path="url(#a)" d="m1532.6 280.7 86.4 72.8-25.8 30.6-3.7-3.1c10-18.7 14-31.7-12.2-53.8-8.2-6.9-11.5-8.6-17-2.1l-29.8 35.4c18.6 16.2 30 7.3 42.4-3.1l3.8 3.2-43.4 51.5-3.8-3.2c8.9-13.9 15.8-27.1-3.4-43.3l-29.9 35.5c-8.5 10.1-2.6 15.5 7.7 24.9l-3.2 3.8-54.9-46.2 3.2-3.8c9.5 6.4 14.6 9.9 22.5.5l62.1-73.8c8.5-10.1 2.5-15.6-4.3-22.1z" fill="#fff"/><path clip-path="url(#a)" d="m1613.6 551.8-44.8-55.3 3.9-3.1c10.1 10.6 13.4 14 26.4 3.5l81.6-66.1c-9.4-10.3-23.1-25.6-50.4-8.7l-3.6-4.5 31.5-24.7 75.3 92.9-30.9 25.5-3.6-4.5c22.3-23.2 10.1-39.7 2.1-50.9l-81.6 66.1c-13.2 10.7-10.5 14.6-1.9 26.7z" fill="#fff"/><path clip-path="url(#a)" d="m1742.4 498.2 57.7 99.4-34.6 20.1-2.5-4.3c22.2-18.2 19.4-32.9 5.9-56.2-5.5-9.5-8-12.2-15.4-7.9l-40 23.2c9.4 16.6 19 22.8 41.9 13l2.6 4.5-58.2 33.8-2.6-4.5c20.3-14.6 20.4-26.4 10.5-43.4l-41.7 24.2c-7.6 4.4-7.7 8.9-1.2 20.1 9.8 16.9 24.5 31.9 56.8 27.6l2.8 4.8-39.9 13.9-58.5-100.8 4.3-2.5c6.7 9.2 10.4 14.3 21 8.1l83.4-48.4c11.4-6.6 7.5-14 3.4-22.3z" fill="#fff"/><path clip-path="url(#a)" d="m1854.8 745.8c-7.9-16.4-14.3-18-66.8-31.7l-39.8 53.9c-11.5 15.7-10.8 18.8-9.1 24.2l-4.7 1.8-24.1-63.3 4.7-1.8c4.2 9.5 6.6 14.5 11.6 12.6 1.9-.7 5.9-4.6 8.2-7.6l23-30.3-12.2-3.5c-26.6-7.6-31.6-8-35.2-6.7-6.5 2.5-4 11.3-2.1 18.1l-4.7 1.8-17.7-46.6 4.7-1.8c3.3 6 6.7 12 17.8 15.4l53.6 16.9 40.2-57.5c4.3-6.1 7.7-11 5.1-19l4.7-1.8 24.5 64.4-4.7 1.8c-4.9-10.7-6.3-14.4-11.7-12.4-2.4.9-3.3 1.9-5.8 5.4l-21.1 28.7c37.5 10 37.5 10 42.5 8.1 5.8-2.2 4-7.5 1.4-15.9l4.7-1.8 17.7 46.6z" fill="#fff"/><path clip-path="url(#a)" d="m1785 811 51.1 9.1-43.6 29.1zm-22.1 105.9c-2.2-9.3 3.8-13.7 23-26.6l94.3-63.8-1.1-5.5-115.7-22.4c-15.8-3-23-4.4-26.6-14.7l-4.9 1 7.8 39.7 4.9-1c-.9-6.7-2.2-16.2 5.3-17.7 3.1-.6 11.8.9 26.9 3.7l8.6 44c-5.7 4-19 13.1-24.2 14.1-6.5 1.3-7.3-2.2-10.7-14.2l-4.9 1 12.4 63.4z" fill="#fff"/><path clip-path="url(#a)" d="m1854.9 995.8c13.8-4.2 36.1-17.2 35-40.7-.5-10.3-7-21-19.9-20.4-10.8.5-14.9 4.5-22.5 21.6l-13.2 29.9c-3.1 6.9-13.9 22.6-35.6 23.6-17.5.8-42.2-10.8-43.9-47.4-.9-18.9 5.5-28.2 5.2-34.3-.2-4.2-3.8-5-7-5.7l-.3-5.8 49.2-2.3.3 5.8c-19.9 4.9-41.9 17.5-40.7 42.8 1.1 23.9 20.9 24 23.4 23.9 13.3-.6 17.7-10.2 23.3-23.4l5.8-13.6c14.8-34.8 31.9-35.6 41-36 12.2-.6 39.5 4.4 41.2 42.2.7 15.9-5.4 25.6-5.1 31.4.2 4.6 3.2 5.4 7.1 6.3l.3 6-43.2 2z" fill="#fff"/><path clip-path="url(#a)" d="m548.2 1719.2 40.1-32.2-6.8 51.5zm64.5 85.5c-8.4-4.4-7.8-11.8-4.9-34.5l13.9-111.9-4.8-2.8-92.1 71.6c-12.5 9.8-18.3 14.3-28.3 10.3l-2.5 4.3 34.7 20.1 2.5-4.3c-5.6-3.7-13.5-9-9.7-15.5 1.6-2.7 8.4-8.2 20.3-17.7l38.4 22.2c-.8 6.9-2.6 22.6-5.3 27.3-3.3 5.6-6.4 4-17.5-1.3l-2.5 4.3 55.3 32z" fill="#fff"/><path clip-path="url(#a)" d="m696.1 1843.5-65.2-26.7 1.9-4.6c13.8 4.4 18.3 5.8 24.6-9.6l39.4-96.2c-13.1-4.5-32.3-11.3-47.9 16.4l-5.3-2.2 15.6-36.5 109.6 44.8-14.7 36.8-5.3-2.2c8.3-30.7-10.1-39.3-22.4-45.2l-39.4 96.2c-6.4 15.5-2.1 17.7 11 24.1z" fill="#fff"/><path clip-path="url(#a)" d="m951.2 1895.8-70.1-6.7.5-4.9c14.5.2 19.2.3 20.8-16.2l9.9-103.5c-13.8-.5-34.1-1.5-41.1 29.5l-5.7-.5 4.4-39.4 117.8 11.3-3.4 39.5-5.7-.5c-.9-31.8-21-34.7-34.5-36.8l-9.9 103.5c-1.6 16.7 3.1 17.5 17.5 19.9z" fill="#fff"/><path clip-path="url(#a)" d="m1116.3 1762.7c-3.7.8-9.4 2-12.9 8.5l-33.9 63.5 2.2 36.2c1 16.3 5.3 16.5 19.2 17l.3 4.9-68.3 4.1-.3-4.9c13.5-2.2 18.2-2.9 17.2-19.2l-1.8-28.9-40-63.2c-1.1-1.7-6.3-9.9-16.4-9.9l-.3-4.9 66-4 .3 4.9c-13.6.8-15.9 2.1-15.5 7.6.2 3 3.6 7.7 5.4 10.8l26.4 44.3 19.7-37.8c1.2-2.2 6.9-13.5 6.6-18.8-.5-7.7-7.8-7.6-17.1-7.7l-.3-4.9 43.3-2.6z" fill="#fff"/><path clip-path="url(#a)" d="m1249.1 1863.9-111.3 24.8-1.1-4.8c10.5-3.7 16.1-5.6 13.5-17.4l-20.8-93.2c-2.8-12.7-10.8-11.3-19.6-10l-1.1-4.8 67.2-15 1.1 4.8c-13.4 3.6-19.3 5.1-15.5 22.1l20.2 90.9c2.1 9.2 6.6 9.8 19.5 7 29.1-6.5 36.3-24.9 40.3-48.6l5.6-1.2z" fill="#fff"/><path clip-path="url(#a)" d="m1221.9 1734 106-41.4 14.4 36.9-4.6 1.8c-14.4-24.4-29.3-23.9-54.1-14.2-10.1 4-13.1 6-10 13.9l16.7 42.6c17.7-6.7 25.2-15.1 19.1-39l4.8-1.9 24.3 62.1-4.8 1.9c-11.2-22.1-22.7-24-40.9-16.9l17.4 44.5c3.2 8.1 7.5 8.9 19.5 4.3 18-7 34.9-19.1 35.6-51.4l5.1-2 7.6 41.1-107.5 42-1.8-4.6c10-5.2 15.5-8 11.1-19.4l-34.7-88.9c-4.7-12.1-12.6-9.5-21.3-6.7z" fill="#fff"/><path clip-path="url(#a)" d="m1382.4 1679.7c-2.3-5.8-3-7.8 6.3-13.3 13.6-8 24.9-4.8 35 12.4 13 22.1 6.4 31-15.8 44.3zm132.2 53.8c-2 1.2-4.7 2.5-8.9.9l-62.7-28.4c7.5-8.3 21.9-23.9 9.6-44.8-16.8-28.6-53.7-8.7-65.6-1.7l-54.7 32.2 2.5 4.3c10.1-5 15.6-7.8 24.2 6.8l44.2 75.1c8.1 13.8 5 16.3-5.7 24.5l2.5 4.3 57.5-33.8-2.5-4.3c-12.1 5.1-16.2 6.8-24.2-6.8l-19.6-33.3 4.6-2.7 66.5 32.5 34.8-20.5z" fill="#fff"/><path clip-path="url(#a)" d="m1705 1361-16.5 51.2h-57l46.7 33.2-18.8 52.2 45.6-32.1 42.8 33.4-16.1-52.2 45.6-34.8h-56.3z" fill="#fff"/><path clip-path="url(#a)" d="m1705 1361-16.5 51.2h-57l46.7 33.2-18.8 52.2 45.6-32.1 42.8 33.4-16.1-52.2 45.6-34.8h-56.3z" fill="none" stroke="#fff" stroke-miterlimit="3.864" stroke-width="8.9677"/><path clip-path="url(#a)" d="m288.1 1353.2-16.5 51.1h-56.9l46.6 33.2-18.8 52.3 45.6-32.2 42.8 33.5-16.1-52.2 45.6-34.8h-56.3z" fill="#fff"/><path clip-path="url(#a)" d="m288.1 1353.2-16.5 51.1h-56.9l46.6 33.2-18.8 52.3 45.6-32.2 42.8 33.5-16.1-52.2 45.6-34.8h-56.3z" fill="none" stroke="#fff" stroke-miterlimit="3.864" stroke-width="8.9677"/><path clip-path="url(#a)" d="m1012.6 940.3-41.6 129.1h-143.6l117.6 83.8-47.3 131.8 114.9-81.1 108.1 84.4-40.5-131.7 114.9-87.9h-142z" fill="#fff"/><path clip-path="url(#a)" d="m1012.6 940.3-41.6 129.1h-143.6l117.6 83.8-47.3 131.8 114.9-81.1 108.1 84.4-40.5-131.7 114.9-87.9h-142z" fill="none" stroke="#231f20" stroke-miterlimit="3.864" stroke-width="8.9677"/></svg>